<svg width="26" height="26" viewBox="0 0 26 26" fill="none" xmlns="http://www.w3.org/2000/svg">
<path
  d="M24.6464 25.3536C24.8417 25.5488 25.1583 25.5488 25.3536 25.3536C25.5488 25.1583 25.5488 24.8417 25.3536 24.6464L24.6464 25.3536ZM1.35355 0.646447C1.15829 0.451184 0.841709 0.451184 0.646447 0.646447C0.451184 0.841709 0.451184 1.15829 0.646447 1.35355L1.35355 0.646447ZM0.646447 24.6464C0.451184 24.8417 0.451184 25.1583 0.646447 25.3536C0.841709 25.5488 1.15829 25.5488 1.35355 25.3536L0.646447 24.6464ZM25.3536 1.35355C25.5488 1.15829 25.5488 0.841709 25.3536 0.646447C25.1583 0.451184 24.8417 0.451184 24.6464 0.646447L25.3536 1.35355ZM25.3536 24.6464L1.35355 0.646447L0.646447 1.35355L24.6464 25.3536L25.3536 24.6464ZM1.35355 25.3536L25.3536 1.35355L24.6464 0.646447L0.646447 24.6464L1.35355 25.3536Z"
  fill="currentColor"
/>
</svg>
