<svg width="47" height="40" fill="none" xmlns="http://www.w3.org/2000/svg"><path d="M35.98 14.575L23.633 8.61l-12.62 5.965C9.698 36.37 23.625 40 23.625 40s13.67-3.631 12.355-25.425zM23.648 38.464s-12.657-4.56-11.534-23.208l11.534-5.11 11.306 5.11c1.123 18.649-11.306 23.208-11.306 23.208zM28.272 3.486c-.154.587-.14 1.624-.14 1.624h-.895V3.9c.91-.037.44-3.567.44-3.567s-1.585 1.544-1.96 2.37c-.374.827.022 1.247.022 1.247v1.152h-1.468V3.957C26.07 3.218 23.522 0 23.522 0s-2.54 3.225-.749 3.957V5.11h-1.468V3.957s.396-.413.022-1.246C20.967 1.884 19.38.34 19.38.34s-.47 3.53.44 3.565V5.11h-.887s.014-1.037-.14-1.624C18.64 2.9 17.54.188 16.768 1.21l.007.073s1.447 1.152 1.586 4.464v2.349h10.351V5.747c.14-3.312 1.586-4.464 1.586-4.464l.008-.073c-.771-1.022-1.873 1.69-2.034 2.276zM3.56 18.62s1.572-3.712.023-4.61c0 0 .822.072 1.204.572 0 0-.632-.913-.243-1.688.008-.008 3.605 2.254-.983 5.725z" fill="#FAF8F5"/><path d="M18.221 39.398s-3.633-1.819-4.654-.362c0 0 .132-.797.668-1.145 0 0-.969.55-1.725.109 0 0 2.547-3.378 5.711 1.398zM10.535 28.686s-6.806-2.892-8.494-.137c0 0 .154-1.472 1.072-2.153 0 0-1.696 1.116-3.113.399 0 0 4.243-6.407 10.535 1.891zM13.23 35.89s-2.724-2.877-4.156-1.877c0 0 .396-.688.998-.833 0 0-1.079.188-1.622-.464 0 0 3.487-2.254 4.78 3.175z" fill="#FAF8F5"/><path d="M14.756 37.007s-1.99-3.407-.594-4.472c0 0-.786.174-1.102.703 0 0 .5-.964.022-1.667 0 0-3.208 2.63 1.674 5.436zM10.55 13.292s2.87-2.725 4.25-1.652c0 0-.36-.71-.954-.884 0 0 1.065.246 1.645-.385 0 .008-3.363-2.428-4.941 2.921z" fill="#FAF8F5"/><path d="M6.453 6.682c-.5.624.007.667.007.667.72-.688 1.535-.427 1.535-.427-.514.144-.052.68-.052.68 3.128 1.487 2.467 4.096 2.467 4.096-.61-2.131-1.828-2.095-1.828-2.095.47 1.624-.558 2.762-.558 2.762-.161-.559-.962-.153-.962-.153C8.325 14.04 4.867 17.8 4.867 17.8c1.939-.724 7.305-3.196 6.828-8.277-.485-5.087-4.743-3.464-5.242-2.84zm3.421 6.06a1.188 1.188 0 01-.088.311 1.747 1.747 0 01-.169.391c-.066.138-.147.29-.25.435a4.351 4.351 0 01-.322.457 9.224 9.224 0 01-.808.899 12.914 12.914 0 01-1.747 1.42c-.25.174-.477.297-.632.392-.154.087-.25.137-.25.137s.302-.275.75-.688c.227-.203.484-.442.77-.696l.397-.37c.044-.065.095-.13.154-.203.125-.174.272-.377.411-.601.147-.225.294-.464.426-.71.059-.124.132-.247.184-.377.051-.13.117-.247.154-.37.037-.123.095-.24.125-.355.029-.116.073-.225.088-.326.022-.102.036-.196.058-.283.015-.087.015-.16.022-.225.015-.123.022-.195.022-.195s.015.072.03.195c.022.124.03.312.015.53 0 .108-.03.224-.045.355-.014.123-.058.253-.095.384a4.364 4.364 0 01-.33.797 6.113 6.113 0 01-.323.515c.132-.138.264-.269.374-.406.25-.276.47-.551.639-.79.088-.123.161-.24.22-.34.066-.102.117-.197.147-.276.066-.16.11-.254.11-.254s-.007.073-.037.246zm1.278-3.19c.014.066.022.138.036.203 0 .066.008.13.008.189 0 .123.007.232 0 .326-.015.094-.022.181-.037.254-.022.137-.037.217-.037.217s-.007-.08-.014-.217c0-.066-.008-.153-.015-.247-.007-.094-.037-.203-.052-.311a2.3 2.3 0 00-.08-.363c-.03-.13-.074-.26-.132-.391-.03-.065-.052-.13-.081-.203-.037-.065-.073-.13-.103-.196-.066-.138-.154-.26-.235-.391-.08-.13-.183-.247-.271-.37-.103-.109-.199-.232-.301-.326a7.534 7.534 0 00-.595-.536c-.367-.297-.646-.464-.646-.464s.308.094.727.34a4.492 4.492 0 011.005.827c.096.13.213.246.301.384s.184.275.25.42c.037.073.073.145.103.218.022.072.051.152.073.224.044.124.074.269.096.413zM9.125 17.626s.419-.674.815-.906c0 0-1.644-.601-3.92.979 0 0-2.643 2.225-1.087 5.182 1.557 2.957 4.046 2.53 3.92 2.326 0 0-5.219-2.167-2.884-4.797 1.578-1.776 3.061.08 3.061.202 0 0 .741-.449.037-1.739 0 0 .675-.493 1.013-.16 0-.007-.191-.876-.955-1.087zm-1.372.297c-.06.008-.133-.007-.213.022-.081.022-.17.037-.265.066-.088.043-.19.08-.286.13-.095.065-.198.116-.294.203-.095.08-.19.16-.279.254a2.484 2.484 0 00-.264.29c-.176.202-.323.427-.462.63A17.3 17.3 0 005 20.707s.05-.268.198-.66c.073-.196.176-.413.293-.645.125-.225.28-.464.456-.681a3.81 3.81 0 01.286-.312c.095-.101.213-.181.323-.26.103-.088.235-.131.345-.19.117-.05.235-.072.338-.1.11-.022.205-.015.293-.022.088-.008.162.021.22.029.125.021.191.043.191.043s-.073.007-.19.015zM5.381 33.76c-.337-.334.154-1 .154-1 1.307.688 1.762-.051 1.762-.051-.124 0-2.011-1.457-.227-3.023 2.643-2.326 4.882 2.805 4.882 2.805.213.116.624-2.34-2.386-3.848-3.01-1.515-5.242 1.116-5.242 1.116-1.578 2.261-.962 3.877-.962 3.877.228-.39.91-.811.91-.811.221.76 1.11.935 1.11.935zm-.822-2.102l-.044-.189c-.007-.058-.037-.13-.03-.217.008-.087 0-.188.015-.29.03-.101.052-.217.103-.333.059-.109.103-.232.191-.34.08-.11.154-.226.257-.32.095-.101.198-.196.308-.29.22-.18.455-.333.69-.456.235-.123.456-.225.654-.297.396-.145.668-.196.668-.196s-.25.13-.602.333c-.176.102-.382.225-.595.363-.213.145-.433.29-.639.464-.102.08-.205.166-.293.26-.096.087-.176.189-.257.283-.088.094-.132.196-.198.29-.052.094-.088.196-.133.283-.029.094-.044.18-.066.26-.029.08-.014.153-.014.21-.008.11-.015.182-.015.182zM43.432 18.62s-1.571-3.712-.022-4.61c0 0-.822.072-1.211.572 0 0 .631-.913.242-1.688 0-.008-3.597 2.254.991 5.725zM28.779 39.398s3.634-1.819 4.654-.362c0 0-.132-.797-.668-1.145 0 0 .969.55 1.725.109 0 0-2.555-3.378-5.712 1.398zM36.465 28.686s6.805-2.892 8.494-.137c0 0-.154-1.472-1.072-2.153 0 0 1.696 1.116 3.113.399 0 0-4.243-6.407-10.535 1.891zM33.77 35.89s2.724-2.877 4.156-1.877c0 0-.397-.688-.998-.833 0 0 1.079.188 1.622-.464-.007 0-3.494-2.254-4.78 3.175z" fill="#FAF8F5"/><path d="M32.236 37.007s1.99-3.407.595-4.472c0 0 .785.174 1.101.703 0 0-.499-.964-.022-1.667.008 0 3.208 2.63-1.674 5.436zM36.45 13.292s-2.87-2.725-4.25-1.652c0 0 .36-.71.954-.884 0 0-1.065.246-1.645-.385 0 .008 3.363-2.428 4.941 2.921z" fill="#FAF8F5"/><path d="M35.305 9.516c-.477 5.074 4.882 7.552 6.828 8.277 0 0-3.458-3.754-2.196-5.588 0 0-.8-.406-.961.152 0 0-1.02-1.138-.558-2.761 0 0-1.219-.036-1.828 2.095 0 0-.66-2.61 2.466-4.095 0 0 .463-.537-.05-.682 0 0 .807-.26 1.533.428 0 0 .5-.044.008-.667-.5-.616-4.765-2.24-5.242 2.841zm1.777 2.95s.044.094.11.254c.03.08.08.174.147.275.058.109.132.225.22.34.169.247.389.515.639.79.117.139.25.269.374.407a8.86 8.86 0 01-.323-.515 4.356 4.356 0 01-.33-.797c-.037-.13-.081-.261-.096-.384-.022-.124-.044-.24-.044-.356a2.342 2.342 0 01.015-.529c.015-.123.03-.195.03-.195s.014.072.021.195c.008.066.008.138.03.225s.044.181.058.283c.015.101.059.21.088.326.03.116.081.232.125.355.037.123.11.246.154.37.06.123.125.246.184.377.132.246.279.492.426.71.14.225.293.428.41.601.052.073.104.145.155.203l.396.37c.28.254.544.493.764.696.448.413.749.688.749.688s-.096-.043-.25-.137c-.154-.095-.374-.218-.631-.392a11.394 11.394 0 01-.845-.623c-.3-.24-.609-.507-.903-.797a9.236 9.236 0 01-.807-.9 3.7 3.7 0 01-.323-.456 2.969 2.969 0 01-.25-.434c-.08-.131-.124-.269-.169-.392a1.185 1.185 0 01-.088-.312l-.036-.246zm-1.13-3.341c.021-.073.05-.145.073-.225.029-.072.066-.145.102-.217.066-.145.154-.283.25-.42.088-.138.206-.254.3-.385.111-.116.221-.232.339-.333.227-.203.462-.363.668-.493.418-.246.727-.34.727-.34s-.28.166-.647.463c-.183.152-.389.326-.594.537-.103.101-.198.217-.301.326-.088.123-.198.232-.272.37-.088.13-.176.253-.235.39-.037.066-.073.131-.103.196-.029.066-.05.138-.08.203-.059.13-.103.261-.133.392a1.698 1.698 0 00-.08.362c-.015.116-.044.217-.052.312-.007.094-.007.18-.014.246-.008.138-.015.218-.015.218s-.015-.08-.037-.218c-.007-.072-.022-.152-.036-.254a2.426 2.426 0 010-.326c0-.058 0-.123.007-.188.015-.065.022-.13.037-.203a1.46 1.46 0 01.095-.413zM36.913 18.706c.338-.326 1.013.16 1.013.16-.705 1.283.037 1.74.037 1.74.007-.124 1.49-1.98 3.061-.204C43.36 23.033 38.14 25.2 38.14 25.2c-.125.21 2.364.63 3.92-2.326 1.557-2.957-1.086-5.182-1.086-5.182-2.276-1.58-3.92-.979-3.92-.979.396.232.814.906.814.906-.763.218-.954 1.087-.954 1.087zm2.144-.797l.19-.043c.06-.008.133-.037.22-.03.089.008.191 0 .294.022.103.03.22.051.338.102.11.058.235.101.345.188.11.08.228.16.323.261.103.094.198.203.286.312.184.217.33.456.456.681.124.232.227.45.293.645.147.392.199.66.199.66s-.133-.247-.33-.595c-.104-.174-.228-.377-.36-.594-.14-.21-.287-.435-.463-.63a2.491 2.491 0 00-.264-.29c-.089-.095-.184-.174-.28-.254-.087-.087-.198-.13-.293-.203-.096-.058-.198-.087-.286-.13-.096-.03-.184-.044-.265-.066-.08-.029-.154-.014-.213-.021-.117-.008-.19-.015-.19-.015zM42.72 32.825s.683.42.918.811c0 0 .624-1.616-.962-3.877 0 0-2.232-2.63-5.242-1.116-3.01 1.515-2.599 3.972-2.386 3.848 0 0 2.24-5.131 4.882-2.805 1.784 1.573-.11 3.023-.227 3.023 0 0 .447.74 1.761.05 0 0 .492.667.155 1 0 0 .88-.173 1.1-.934zm-.286-1.356c-.008-.058.007-.13-.015-.21-.022-.08-.037-.166-.066-.26-.044-.088-.08-.19-.132-.283-.066-.095-.118-.196-.198-.29-.081-.094-.162-.189-.258-.283a2.5 2.5 0 00-.293-.26c-.206-.175-.426-.32-.639-.465-.213-.137-.418-.26-.594-.362-.353-.203-.602-.333-.602-.333s.271.05.668.195a4.935 4.935 0 011.343.754c.11.087.213.181.308.29.103.094.184.21.265.319.088.101.132.232.19.34.052.117.074.232.103.334.022.109.015.203.015.29.007.087-.022.16-.03.217-.021.123-.043.189-.043.189s-.022-.066-.022-.181zM20.563 27.534v.55h-3.296v-.55h1.277v-9.147h-1.277v-.55h2.775l3.274 7.595 3.282-7.595h2.665v.55h-1.277v9.147h1.277v.55h-3.641v-.55h1.248v-8.74l-3.429 7.943h-.66l-3.444-7.944v8.741h1.226z" fill="#FAF8F5"/></svg>