<svg width="30" height="30" fill="none" xmlns="http://www.w3.org/2000/svg"><path d="M15 30c8.272 0 15-6.728 15-15S23.272 0 15 0 0 6.728 0 15s6.728 15 15 15zm0-28.787c7.604 0 13.787 6.183 13.787 13.787 0 7.604-6.183 13.787-13.787 13.787-7.604 0-13.787-6.183-13.787-13.787C1.213 7.396 7.396 1.213 15 1.213z" fill="#FAF8F5"/><path d="M12.868 19.982a.614.614 0 00.429.177.613.613 0 00.428-.177l4.553-4.553a.603.603 0 000-.858l-4.552-4.553a.603.603 0 00-.858 0 .603.603 0 000 .858L16.99 15l-4.123 4.124a.614.614 0 000 .858z" fill="#FAF8F5"/></svg>