<svg width="30" height="30" fill="none" xmlns="http://www.w3.org/2000/svg"><path d="M15 30C6.728 30 0 23.272 0 15S6.728 0 15 0s15 6.728 15 15-6.728 15-15 15zm0-28.787C7.396 1.213 1.213 7.396 1.213 15c0 7.604 6.183 13.787 13.787 13.787 7.604 0 13.787-6.183 13.787-13.787 0-7.604-6.183-13.787-13.787-13.787z" fill="#FAF8F5"/><path d="M17.132 19.982a.614.614 0 01-.429.177.613.613 0 01-.428-.177l-4.553-4.553a.603.603 0 010-.858l4.553-4.553a.603.603 0 01.857 0 .603.603 0 010 .858L13.01 15l4.123 4.124a.614.614 0 010 .858z" fill="#FAF8F5"/></svg>