<svg width="47" height="40" viewBox="0 0 47 40" fill="none" xmlns="http://www.w3.org/2000/svg">
<path d="M35.9805 14.5751L23.6321 8.61026L11.0122 14.5751C9.69806 36.3689 23.6248 40 23.6248 40C23.6248 40 37.2946 36.3689 35.9805 14.5751ZM23.6468 38.4635C23.6468 38.4635 10.9902 33.9047 12.1134 15.2564L23.6468 10.1468L34.9527 15.2564C36.0759 33.9047 23.6468 38.4635 23.6468 38.4635Z" fill="#FAF8F5"/>
<path d="M28.2719 3.48614C28.1178 4.0732 28.1325 5.10962 28.1325 5.10962H27.2368V3.89926C28.1471 3.86302 27.6773 0.333394 27.6773 0.333394C27.6773 0.333394 26.0915 1.87715 25.7171 2.70339C25.3427 3.52962 25.7391 3.94999 25.7391 3.94999V5.10237H24.2709V3.95724C26.0695 3.21797 23.522 0 23.522 0C23.522 0 20.9819 3.22522 22.7732 3.95724V5.10962H21.3049V3.95724C21.3049 3.95724 21.7013 3.54412 21.3269 2.71064C20.9672 1.8844 19.3814 0.340641 19.3814 0.340641C19.3814 0.340641 18.9116 3.87027 19.8219 3.9065V5.10962H18.9336C18.9336 5.10962 18.9483 4.0732 18.7941 3.48614C18.64 2.89908 17.5387 0.18844 16.7679 1.21036L16.7752 1.28284C16.7752 1.28284 18.2215 2.43522 18.361 5.74742V8.09567H28.7124V5.74742C28.8519 2.43522 30.2982 1.28284 30.2982 1.28284L30.3055 1.21036C29.5347 0.18844 28.4335 2.89908 28.2719 3.48614Z" fill="#FAF8F5"/>
<path d="M3.56061 18.6193C3.56061 18.6193 5.13168 14.9085 3.58263 14.0098C3.58263 14.0098 4.40487 14.0823 4.78663 14.5824C4.78663 14.5824 4.15526 13.6691 4.54436 12.8936C4.5517 12.8864 8.14902 15.1477 3.56061 18.6193Z" fill="#FAF8F5"/>
<path d="M18.2215 39.3984C18.2215 39.3984 14.5875 37.5793 13.567 39.0361C13.567 39.0361 13.6992 38.2388 14.2351 37.8909C14.2351 37.8909 13.266 38.4417 12.5098 37.9996C12.5098 37.9996 15.0573 34.6222 18.2215 39.3984Z" fill="#FAF8F5"/>
<path d="M10.535 28.6864C10.535 28.6864 3.72946 25.7945 2.04092 28.5486C2.04092 28.5486 2.1951 27.0774 3.11278 26.3961C3.11278 26.3961 1.4169 27.5122 0 26.7947C0 26.7947 4.24336 20.3877 10.535 28.6864Z" fill="#FAF8F5"/>
<path d="M13.2293 35.8906C13.2293 35.8906 10.5056 33.0132 9.07404 34.0134C9.07404 34.0134 9.47048 33.3249 10.0725 33.1799C10.0725 33.1799 8.99328 33.3684 8.45002 32.7161C8.45002 32.7161 11.9372 30.462 13.2293 35.8906Z" fill="#FAF8F5"/>
<path d="M14.7563 37.0067C14.7563 37.0067 12.7668 33.6003 14.1617 32.5349C14.1617 32.5349 13.3761 32.7088 13.0604 33.2379C13.0604 33.2379 13.5597 32.274 13.0825 31.5709C13.0825 31.5709 9.87426 34.2018 14.7563 37.0067Z" fill="#FAF8F5"/>
<path d="M10.5497 13.2923C10.5497 13.2923 13.4202 10.5671 14.8004 11.6398C14.8004 11.6398 14.4406 10.9295 13.846 10.7556C13.846 10.7556 14.9105 11.002 15.4905 10.3714C15.4905 10.3787 12.1281 7.94347 10.5497 13.2923Z" fill="#FAF8F5"/>
<path d="M6.45314 6.68237C5.95392 7.30567 6.46048 7.34916 6.46048 7.34916C7.17994 6.66063 7.99484 6.92154 7.99484 6.92154C7.48094 7.0665 7.94345 7.60283 7.94345 7.60283C11.0709 9.0886 10.4102 11.6978 10.4102 11.6978C9.80084 9.56695 8.58216 9.60319 8.58216 9.60319C9.05201 11.2267 8.02421 12.3646 8.02421 12.3646C7.8627 11.8065 7.06248 12.2124 7.06248 12.2124C8.32521 14.0388 4.86739 17.8003 4.86739 17.8003C6.80553 17.0756 12.1721 14.6041 11.6949 9.52346C11.2104 4.43559 6.95236 6.05907 6.45314 6.68237ZM9.87426 12.7414C9.86692 12.8357 9.83021 12.9371 9.78616 13.0531C9.74945 13.1763 9.69806 13.3068 9.61731 13.4445C9.55123 13.5822 9.47048 13.7344 9.3677 13.8793C9.27226 14.0315 9.16948 14.1837 9.04467 14.3359C8.80975 14.6476 8.52343 14.9447 8.23711 15.2346C7.94345 15.5173 7.63511 15.7927 7.33411 16.0319C7.03311 16.2711 6.7468 16.4812 6.48985 16.6552C6.24024 16.8291 6.01265 16.9523 5.85848 17.0466C5.70431 17.1335 5.60887 17.1843 5.60887 17.1843C5.60887 17.1843 5.90987 16.9089 6.3577 16.4957C6.58529 16.2928 6.84224 16.0536 7.12855 15.8C7.25336 15.684 7.3855 15.5608 7.52499 15.4303C7.56904 15.3651 7.62043 15.2999 7.67916 15.2274C7.80397 15.0535 7.9508 14.8505 8.09028 14.6258C8.23711 14.4012 8.38394 14.162 8.51609 13.9156C8.57482 13.7924 8.64823 13.6691 8.69963 13.5387C8.75102 13.4082 8.81709 13.2923 8.8538 13.1691C8.8905 13.0458 8.94923 12.9299 8.9786 12.8139C9.00797 12.698 9.05202 12.5892 9.0667 12.4878C9.08872 12.3863 9.1034 12.2921 9.12543 12.2051C9.14011 12.1181 9.14011 12.0457 9.14745 11.9804C9.16214 11.8572 9.16948 11.7847 9.16948 11.7847C9.16948 11.7847 9.18416 11.8572 9.19884 11.9804C9.22087 12.1036 9.22821 12.2921 9.21353 12.5095C9.21353 12.6182 9.18416 12.7342 9.16948 12.8646C9.15479 12.9879 9.11075 13.1183 9.07404 13.2488C9.00062 13.5169 8.87582 13.7851 8.74367 14.046C8.64089 14.2272 8.53811 14.3939 8.42065 14.5606C8.5528 14.4229 8.68494 14.2924 8.79506 14.1547C9.04467 13.8793 9.26492 13.6039 9.43377 13.3647C9.52187 13.2415 9.59528 13.1256 9.65401 13.0241C9.72009 12.9226 9.77148 12.8284 9.80084 12.7487C9.86692 12.5892 9.91096 12.495 9.91096 12.495C9.91096 12.495 9.90362 12.5675 9.87426 12.7414ZM11.1517 9.55245C11.1664 9.61768 11.1737 9.69016 11.1884 9.75539C11.1884 9.82062 11.1957 9.88585 11.1957 9.94383C11.1957 10.067 11.2031 10.1758 11.1957 10.27C11.181 10.3642 11.1737 10.4512 11.159 10.5236C11.137 10.6614 11.1223 10.7411 11.1223 10.7411C11.1223 10.7411 11.115 10.6614 11.1076 10.5236C11.1076 10.4584 11.1003 10.3714 11.0929 10.2772C11.0856 10.183 11.0562 10.0743 11.0415 9.96557C11.0269 9.84961 10.9975 9.7264 10.9608 9.60319C10.9314 9.47273 10.8874 9.34227 10.8286 9.21181C10.7993 9.14658 10.7773 9.08136 10.7479 9.00888C10.7112 8.94365 10.6745 8.87842 10.6451 8.81319C10.579 8.67548 10.4909 8.55227 10.4102 8.42181C10.3294 8.29136 10.2266 8.17539 10.1386 8.05218C10.0358 7.94347 9.94033 7.82026 9.83755 7.72604C9.63199 7.51585 9.42643 7.34191 9.24289 7.18971C8.87582 6.89255 8.59684 6.72586 8.59684 6.72586C8.59684 6.72586 8.90519 6.82008 9.32365 7.0665C9.52921 7.18971 9.76414 7.35641 9.99172 7.55934C10.1092 7.66081 10.2193 7.77677 10.3294 7.89273C10.4249 8.02319 10.5423 8.13916 10.6304 8.27686C10.7185 8.41457 10.814 8.55227 10.88 8.69723C10.9167 8.7697 10.9535 8.84218 10.9828 8.91466C11.0048 8.98714 11.0342 9.06686 11.0562 9.13934C11.1003 9.26255 11.1296 9.4075 11.1517 9.55245Z" fill="#FAF8F5"/>
<path d="M9.12543 17.6264C9.12543 17.6264 9.54389 16.9523 9.94033 16.7204C9.94033 16.7204 8.29585 16.1189 6.01999 17.6989C6.01999 17.6989 3.37707 19.9239 4.93346 22.881C6.48985 25.838 8.9786 25.4104 8.8538 25.2075C8.8538 25.2075 3.63402 23.0404 5.9686 20.4095C7.54702 18.6338 9.02999 20.4892 9.02999 20.6124C9.02999 20.6124 9.77148 20.1631 9.0667 18.873C9.0667 18.873 9.74211 18.3801 10.0798 18.7135C10.0798 18.7063 9.88894 17.8366 9.12543 17.6264ZM7.75258 17.9235C7.69385 17.9308 7.62043 17.9163 7.53967 17.9453C7.45892 17.967 7.37082 17.9815 7.27538 18.0105C7.18729 18.054 7.0845 18.0902 6.98907 18.141C6.89363 18.2062 6.79085 18.2569 6.69541 18.3439C6.59997 18.4236 6.50453 18.5033 6.41643 18.5976C6.32099 18.6845 6.2329 18.786 6.15214 18.8875C5.97594 19.0904 5.82912 19.3151 5.68963 19.518C5.55748 19.7282 5.43268 19.9311 5.3299 20.1123C5.12434 20.4675 4.99953 20.7066 4.99953 20.7066C4.99953 20.7066 5.05092 20.4385 5.19775 20.0471C5.27116 19.8514 5.37395 19.634 5.49141 19.4021C5.61621 19.1774 5.77038 18.9382 5.94658 18.7208C6.03468 18.6121 6.13012 18.5106 6.2329 18.4091C6.32833 18.3077 6.4458 18.2279 6.55592 18.1482C6.6587 18.0612 6.79085 18.0178 6.90097 17.9598C7.01843 17.909 7.1359 17.8873 7.23868 17.8583C7.3488 17.8366 7.44424 17.8438 7.53233 17.8366C7.62043 17.8293 7.69385 17.8583 7.75258 17.8656C7.87738 17.8873 7.94345 17.909 7.94345 17.909C7.94345 17.909 7.87004 17.9163 7.75258 17.9235Z" fill="#FAF8F5"/>
<path d="M5.38129 33.7597C5.04358 33.4263 5.53546 32.7596 5.53546 32.7596C6.84224 33.4481 7.29741 32.7088 7.29741 32.7088C7.1726 32.7088 5.28585 31.252 7.06982 29.6865C9.71275 27.36 11.9519 32.4914 11.9519 32.4914C12.1648 32.6074 12.5759 30.1504 9.56592 28.6429C6.55592 27.1281 4.32412 29.759 4.32412 29.759C2.7457 32.0203 3.36239 33.6365 3.36239 33.6365C3.58997 33.2452 4.27273 32.8248 4.27273 32.8248C4.49297 33.5858 5.38129 33.7597 5.38129 33.7597ZM4.55904 31.6579C4.55904 31.6579 4.54436 31.5927 4.51499 31.4695C4.50765 31.4115 4.47829 31.339 4.48563 31.252C4.49297 31.1651 4.48563 31.0636 4.50031 30.9621C4.52968 30.8607 4.5517 30.7447 4.60309 30.6287C4.66182 30.52 4.70587 30.3968 4.79397 30.2881C4.87473 30.1794 4.94814 30.0634 5.05092 29.9692C5.14636 29.8677 5.24914 29.7735 5.35926 29.6793C5.57951 29.4981 5.81443 29.3459 6.04936 29.2227C6.28429 29.0995 6.50453 28.998 6.70275 28.9255C7.09919 28.7806 7.37082 28.7298 7.37082 28.7298C7.37082 28.7298 7.12121 28.8603 6.76882 29.0632C6.59263 29.1647 6.38707 29.2879 6.17416 29.4256C5.96126 29.5706 5.74102 29.7155 5.53546 29.8895C5.43268 29.9692 5.3299 30.0562 5.2418 30.1504C5.14636 30.2374 5.0656 30.3388 4.98485 30.433C4.89675 30.5273 4.8527 30.6287 4.78663 30.723C4.73524 30.8172 4.69853 30.9186 4.65448 31.0056C4.62512 31.0998 4.61043 31.1868 4.58841 31.2665C4.55904 31.3463 4.57373 31.4187 4.57373 31.4767C4.56639 31.5854 4.55904 31.6579 4.55904 31.6579Z" fill="#FAF8F5"/>
<path d="M43.432 18.6193C43.432 18.6193 41.861 14.9085 43.41 14.0098C43.41 14.0098 42.5878 14.0823 42.1987 14.5824C42.1987 14.5824 42.83 13.6691 42.441 12.8936C42.441 12.8864 38.8436 15.1477 43.432 18.6193Z" fill="#FAF8F5"/>
<path d="M28.7785 39.3984C28.7785 39.3984 32.4125 37.5793 33.433 39.0361C33.433 39.0361 33.3008 38.2388 32.7649 37.8909C32.7649 37.8909 33.734 38.4417 34.4902 37.9996C34.4902 37.9996 31.9353 34.6222 28.7785 39.3984Z" fill="#FAF8F5"/>
<path d="M36.465 28.6864C36.465 28.6864 43.2705 25.7945 44.9591 28.5486C44.9591 28.5486 44.8049 27.0774 43.8872 26.3961C43.8872 26.3961 45.5831 27.5122 47 26.7947C47 26.7947 42.7566 20.3877 36.465 28.6864Z" fill="#FAF8F5"/>
<path d="M33.7707 35.8906C33.7707 35.8906 36.4944 33.0132 37.926 34.0134C37.926 34.0134 37.5295 33.3249 36.9275 33.1799C36.9275 33.1799 38.0067 33.3684 38.55 32.7161C38.5426 32.7161 35.0555 30.462 33.7707 35.8906Z" fill="#FAF8F5"/>
<path d="M32.2363 37.0067C32.2363 37.0067 34.2259 33.6003 32.831 32.5349C32.831 32.5349 33.6165 32.7088 33.9322 33.2379C33.9322 33.2379 33.433 32.274 33.9102 31.5709C33.9175 31.5709 37.1184 34.2018 32.2363 37.0067Z" fill="#FAF8F5"/>
<path d="M36.4503 13.2923C36.4503 13.2923 33.5798 10.5671 32.1996 11.6398C32.1996 11.6398 32.5594 10.9295 33.154 10.7556C33.154 10.7556 32.0895 11.002 31.5095 10.3714C31.5095 10.3787 34.8719 7.94347 36.4503 13.2923Z" fill="#FAF8F5"/>
<path d="M35.3051 9.51622C34.8279 14.5896 40.1871 17.0683 42.1326 17.7931C42.1326 17.7931 38.6748 14.0388 39.9375 12.2051C39.9375 12.2051 39.1373 11.7992 38.9758 12.3573C38.9758 12.3573 37.9553 11.2194 38.4178 9.59594C38.4178 9.59594 37.1992 9.5597 36.5898 11.6905C36.5898 11.6905 35.9291 9.08136 39.0565 7.59558C39.0565 7.59558 39.5191 7.05925 39.0051 6.9143C39.0051 6.9143 39.8127 6.65338 40.5395 7.34191C40.5395 7.34191 41.0387 7.29842 40.5469 6.67512C40.0476 6.05907 35.7823 4.43559 35.3051 9.51622ZM37.0817 12.466C37.0817 12.466 37.1257 12.5602 37.1918 12.7197C37.2212 12.7994 37.2726 12.8936 37.3386 12.9951C37.3974 13.1038 37.4708 13.2198 37.5589 13.3357C37.7277 13.5822 37.948 13.8503 38.1976 14.1257C38.3151 14.2635 38.4472 14.3939 38.572 14.5316C38.4619 14.3649 38.3518 14.1982 38.249 14.017C38.1168 13.7561 37.992 13.488 37.9186 13.2198C37.8819 13.0893 37.8379 12.9589 37.8232 12.8357C37.8012 12.7124 37.7791 12.5965 37.7791 12.4805C37.7644 12.2631 37.7718 12.0746 37.7938 11.9514C37.8085 11.8282 37.8232 11.7558 37.8232 11.7558C37.8232 11.7558 37.8379 11.8282 37.8452 11.9514C37.8525 12.0167 37.8525 12.0891 37.8746 12.1761C37.8966 12.2631 37.9186 12.3573 37.9333 12.4588C37.948 12.5602 37.992 12.669 38.0214 12.7849C38.0508 12.9009 38.1022 13.0168 38.1462 13.1401C38.1829 13.2633 38.2563 13.3865 38.3004 13.5097C38.3591 13.6329 38.4252 13.7561 38.4839 13.8866C38.6161 14.133 38.7629 14.3794 38.9097 14.5968C39.0492 14.8215 39.2034 15.0245 39.3208 15.1984C39.3722 15.2709 39.4236 15.3434 39.475 15.4013C39.6072 15.5246 39.7393 15.6478 39.8714 15.771C40.1504 16.0246 40.4147 16.2638 40.635 16.4668C41.0828 16.8799 41.3838 17.1553 41.3838 17.1553C41.3838 17.1553 41.2883 17.1118 41.1342 17.0176C40.98 16.9234 40.7598 16.8001 40.5028 16.6262C40.2459 16.4595 39.9595 16.2421 39.6585 16.0029C39.3575 15.7637 39.0492 15.4956 38.7555 15.2057C38.4692 14.9157 38.1829 14.6186 37.948 14.3069C37.8232 14.162 37.7204 14.0025 37.625 13.8503C37.5222 13.7054 37.4414 13.5532 37.3753 13.4155C37.2946 13.285 37.2505 13.1473 37.2065 13.0241C37.1624 12.9081 37.1257 12.8067 37.1184 12.7124C37.0964 12.5675 37.0817 12.466 37.0817 12.466ZM35.9511 9.12484C35.9731 9.05236 36.0025 8.97989 36.0245 8.90016C36.0539 8.82769 36.0906 8.75521 36.1273 8.68273C36.1934 8.53778 36.2815 8.40007 36.3769 8.26237C36.465 8.12466 36.5825 8.0087 36.6779 7.87824C36.788 7.76228 36.8982 7.64631 37.0156 7.54485C37.2432 7.34191 37.4781 7.18246 37.6837 7.052C38.1022 6.80558 38.4105 6.71136 38.4105 6.71136C38.4105 6.71136 38.1315 6.87806 37.7645 7.17521C37.5809 7.32741 37.3754 7.50136 37.1698 7.71154C37.067 7.81301 36.9716 7.92897 36.8688 8.03769C36.7807 8.1609 36.6706 8.26961 36.5972 8.40732C36.5091 8.53778 36.421 8.66099 36.3622 8.79869C36.3255 8.86392 36.2888 8.92915 36.2594 8.99438C36.2301 9.05961 36.2081 9.13209 36.1787 9.19732C36.12 9.32778 36.0759 9.45823 36.0465 9.58869C36.0098 9.7119 35.9731 9.83512 35.9658 9.95108C35.9511 10.067 35.9217 10.1685 35.9144 10.2627C35.9071 10.3569 35.9071 10.4439 35.8997 10.5091C35.8924 10.6469 35.885 10.7266 35.885 10.7266C35.885 10.7266 35.8704 10.6469 35.8483 10.5091C35.841 10.4367 35.8263 10.3569 35.8116 10.2555C35.8043 10.1613 35.8043 10.0453 35.8116 9.92933C35.8116 9.87135 35.8116 9.80612 35.819 9.74089C35.8336 9.67566 35.841 9.61044 35.8557 9.53796C35.8704 9.4075 35.8924 9.26255 35.9511 9.12484Z" fill="#FAF8F5"/>
<path d="M36.9128 18.7063C37.2505 18.3801 37.926 18.8657 37.926 18.8657C37.2212 20.1486 37.9627 20.6052 37.9627 20.6052C37.97 20.482 39.453 18.6266 41.0241 20.4022C43.3586 23.0332 38.1389 25.2002 38.1389 25.2002C38.0141 25.4104 40.5028 25.8308 42.0592 22.8737C43.6156 19.9166 40.9727 17.6916 40.9727 17.6916C38.6968 16.1116 37.0523 16.7132 37.0523 16.7132C37.4488 16.9451 37.8672 17.6191 37.8672 17.6191C37.1037 17.8366 36.9128 18.7063 36.9128 18.7063ZM39.0565 17.909C39.0565 17.909 39.1226 17.8945 39.2474 17.8656C39.3062 17.8583 39.3796 17.8293 39.4677 17.8366C39.5558 17.8438 39.6585 17.8366 39.7613 17.8583C39.8641 17.8873 39.9816 17.909 40.099 17.9598C40.2092 18.0178 40.334 18.0612 40.4441 18.1482C40.5542 18.2279 40.6717 18.3077 40.7671 18.4091C40.8699 18.5033 40.9653 18.6121 41.0534 18.7208C41.237 18.9382 41.3838 19.1774 41.5086 19.4021C41.6334 19.634 41.7362 19.8514 41.8022 20.0471C41.9491 20.4385 42.0005 20.7066 42.0005 20.7066C42.0005 20.7066 41.8683 20.4602 41.6701 20.1123C41.5673 19.9384 41.4425 19.7355 41.3104 19.518C41.1709 19.3078 41.0241 19.0832 40.8479 18.8875C40.7671 18.786 40.679 18.6845 40.5836 18.5976C40.4955 18.5033 40.4 18.4236 40.3046 18.3439C40.2165 18.2569 40.1064 18.2134 40.0109 18.141C39.9155 18.083 39.8127 18.054 39.7246 18.0105C39.6292 17.9815 39.5411 17.967 39.4603 17.9453C39.3796 17.9163 39.3062 17.9308 39.2474 17.9235C39.13 17.9163 39.0565 17.909 39.0565 17.909Z" fill="#FAF8F5"/>
<path d="M42.7199 32.8248C42.7199 32.8248 43.4027 33.2452 43.6376 33.6365C43.6376 33.6365 44.2616 32.0203 42.6759 29.759C42.6759 29.759 40.4441 27.1281 37.4341 28.6429C34.4241 30.1576 34.8352 32.6146 35.0481 32.4914C35.0481 32.4914 37.2873 27.36 39.9302 29.6865C41.7142 31.2593 39.8201 32.7088 39.7026 32.7088C39.7026 32.7088 40.1504 33.4481 41.4645 32.7596C41.4645 32.7596 41.9564 33.4263 41.6187 33.7597C41.6187 33.7597 42.4997 33.5858 42.7199 32.8248ZM42.4336 31.4695C42.4263 31.4115 42.441 31.339 42.4189 31.2593C42.3969 31.1796 42.3822 31.0926 42.3529 30.9984C42.3088 30.9114 42.2721 30.8099 42.2207 30.7157C42.1546 30.6215 42.1032 30.52 42.0225 30.4258C41.9417 30.3316 41.861 30.2374 41.7655 30.1431C41.6774 30.0489 41.5747 29.9619 41.4719 29.8822C41.2663 29.7083 41.0461 29.5633 40.8332 29.4184C40.6203 29.2807 40.4147 29.1575 40.2385 29.056C39.8861 28.8531 39.6365 28.7226 39.6365 28.7226C39.6365 28.7226 39.9082 28.7733 40.3046 28.9183C40.5028 28.9908 40.7231 29.0922 40.958 29.2154C41.1856 29.3459 41.4278 29.4908 41.6481 29.672C41.7582 29.759 41.861 29.8532 41.9564 29.9619C42.0592 30.0562 42.1399 30.1721 42.2207 30.2808C42.3088 30.3823 42.3529 30.5128 42.4116 30.6215C42.463 30.7375 42.485 30.8534 42.5144 30.9549C42.5364 31.0636 42.5291 31.1578 42.5291 31.2448C42.5364 31.3318 42.507 31.4042 42.4997 31.4622C42.4777 31.5854 42.4556 31.6507 42.4556 31.6507C42.4556 31.6507 42.4336 31.5854 42.4336 31.4695Z" fill="#FAF8F5"/>
<path d="M20.5634 27.534V28.0848H17.2671V27.534H18.5445V18.3874H17.2671V17.8366H20.0422L23.3165 25.4321L26.5981 17.8366H29.263V18.3874H27.9856V27.534H29.263V28.0848H25.6217V27.534H26.8697V18.7933L23.4413 26.7367H22.7805L19.3374 18.7933V27.534H20.5634Z" fill="#FAF8F5"/>
</svg>
